<?xml version="1.0" encoding="UTF-8"?>
<svg id="Capa_1" data-name="Capa 1" xmlns="http://www.w3.org/2000/svg" viewBox="0 0 315.92203 105.591">
  <defs>
    <style>
      .cls-1 {
        fill: #1463f5;
      }
    </style>
  </defs>
  <path class="cls-1" d="M147.47492,75.24436c3.42787-2.85295,5.16576-6.90936,5.16576-12.05858,0-2.92824-.87608-5.6751-2.6037-8.16187-1.72762-2.48563-4.14539-4.30395-7.18598-5.40589l-.98787-.35819.94965-.44944c5.02717-2.38069,7.47116-6.26599,7.47116-11.87606,0-4.2857-1.601-7.78201-4.75853-10.39198-3.18376-2.62937-7.9708-3.96287-14.22881-3.96287h-27.03285v56.99279h27.84504c6.74509,0,11.91485-1.4567,15.36611-4.3279ZM117.12314,32.676h13.27915c2.21814,0,3.97314.58633,5.21595,1.74302,1.25251,1.16468,1.88733,2.74914,1.88733,4.7089,0,2.06357-.63253,3.72788-1.87934,4.94617-1.24396,1.21601-3.00181,1.832-5.22394,1.832h-13.27915v-13.2301ZM117.12314,69.47572v-14.0423h14.17348c5.36083,0,8.0786,2.36244,8.0786,7.02115,0,2.2381-.72151,3.99025-2.14456,5.20968-1.40366,1.20232-3.40049,1.81147-5.93404,1.81147h-14.17348Z"/>
  <path class="cls-1" d="M197.673,79.57226v-41.0626h-11.8042v22.96959c0,2.87234-.8082,5.13667-2.40293,6.73141-1.5953,1.59473-3.61381,2.4035-5.99963,2.4035-4.76708,0-7.18427-2.55408-7.18427-7.59037v-24.51413h-11.80306v27.03399c0,4.78875,1.28445,8.52804,3.81743,11.11178,2.53069,2.5826,5.99393,3.89215,10.29331,3.89215,5.35056,0,9.66021-2.26205,12.80975-6.72228l.79565-1.12817v6.87514h11.47795Z"/>
  <rect class="cls-1" x="205.86567" y="22.57947" width="11.80306" height="56.99279"/>
  <rect class="cls-1" x="225.94239" y="6.64927" width="11.80306" height="72.92298"/>
  <path class="cls-1" d="M269.60697,38.50966h-8.28963v-2.46966c0-2.23924.95022-4.90853,5.47661-4.90853h2.97615v-8.59306c-1.94778-.18822-3.82256-.28404-5.57699-.28404-4.89484,0-8.60561,1.21487-11.02965,3.61153-2.42118,2.39666-3.64917,5.68308-3.64917,9.76801v2.87576h-6.25801v8.39002h6.25801v32.67258h11.80306v-32.67258h8.28963v-8.39002Z"/>
  <path class="cls-1" d="M293.85475,92.49322c2.83413-1.99512,5.21424-5.69677,7.07134-11.00227l14.99594-42.98129h-12.14699l-1.77325,5.70704c-2.5324,8.67406-4.88229,17.52606-6.98236,26.30393l-.42378,1.7704-.42777-1.76926c-2.04817-8.46074-4.45281-17.34127-7.14663-26.39176l-1.77097-5.62034h-12.71393l11.82245,33.47109c1.32951,3.76667,1.97573,6.4736,1.97573,8.27366,0,4.1739-2.2803,6.28995-6.77703,6.28995h-3.62636v8.89764c2.03904.09354,3.55848.14145,4.51954.14145,5.94887,0,10.45872-1.0392,13.40406-3.09022Z"/>
  <polygon class="cls-1" points="82.78054 79.78101 82.3579 54.47065 73.80761 48.98264 61.45986 57.08177 69.75063 61.68572 69.75063 71.64195 40.81962 89.67336 33.10263 84.29599 33.10263 30.68772 20.21133 38.6397 20.21133 92.57764 40.97362 105.591 82.78054 79.78101"/>
  <polygon class="cls-1" points="63.0044 29.81507 41.11963 43.46154 41.11963 59.54573 76.33146 38.16972 76.33146 22.0593 40.83502 0 0 25.82368 0 79.92018 12.18976 87.27328 12.18976 34.11103 12.39966 33.98213 40.97305 16.54276 63.0044 29.81507"/>
</svg>